<mxfile host="Electron" agent="Mozilla/5.0 (Windows NT 10.0; Win64; x64) AppleWebKit/537.36 (KHTML, like Gecko) draw.io/26.2.15 Chrome/134.0.6998.205 Electron/35.2.1 Safari/537.36" version="26.2.15">
  <diagram id="C5RBs43oDa-KdzZeNtuy" name="Page-1">
    <mxGraphModel dx="1258" dy="1082" grid="1" gridSize="10" guides="1" tooltips="1" connect="1" arrows="1" fold="1" page="1" pageScale="1" pageWidth="827" pageHeight="1169" math="0" shadow="0">
      <root>
        <mxCell id="WIyWlLk6GJQsqaUBKTNV-0" />
        <mxCell id="WIyWlLk6GJQsqaUBKTNV-1" parent="WIyWlLk6GJQsqaUBKTNV-0" />
        <mxCell id="Bh1EDCbn83jrM42MJJoX-24" style="edgeStyle=orthogonalEdgeStyle;rounded=0;orthogonalLoop=1;jettySize=auto;html=1;exitX=0.5;exitY=1;exitDx=0;exitDy=0;entryX=0.5;entryY=0;entryDx=0;entryDy=0;" edge="1" parent="WIyWlLk6GJQsqaUBKTNV-1" source="Bh1EDCbn83jrM42MJJoX-0" target="Bh1EDCbn83jrM42MJJoX-21">
          <mxGeometry relative="1" as="geometry" />
        </mxCell>
        <mxCell id="Bh1EDCbn83jrM42MJJoX-0" value="" style="ellipse;whiteSpace=wrap;html=1;" vertex="1" parent="WIyWlLk6GJQsqaUBKTNV-1">
          <mxGeometry x="215" y="140" width="90" height="50" as="geometry" />
        </mxCell>
        <mxCell id="Bh1EDCbn83jrM42MJJoX-2" value="Sende an OpenAI" style="rounded=0;whiteSpace=wrap;html=1;" vertex="1" parent="WIyWlLk6GJQsqaUBKTNV-1">
          <mxGeometry x="200" y="280" width="120" height="30" as="geometry" />
        </mxCell>
        <mxCell id="Bh1EDCbn83jrM42MJJoX-27" style="edgeStyle=orthogonalEdgeStyle;rounded=0;orthogonalLoop=1;jettySize=auto;html=1;exitX=0.55;exitY=0.95;exitDx=0;exitDy=0;exitPerimeter=0;entryX=0.5;entryY=0;entryDx=0;entryDy=0;" edge="1" parent="WIyWlLk6GJQsqaUBKTNV-1" source="Bh1EDCbn83jrM42MJJoX-3" target="Bh1EDCbn83jrM42MJJoX-26">
          <mxGeometry relative="1" as="geometry" />
        </mxCell>
        <mxCell id="Bh1EDCbn83jrM42MJJoX-3" value="OpenAI API" style="ellipse;shape=cloud;whiteSpace=wrap;html=1;" vertex="1" parent="WIyWlLk6GJQsqaUBKTNV-1">
          <mxGeometry x="360" y="330" width="120" height="80" as="geometry" />
        </mxCell>
        <mxCell id="Bh1EDCbn83jrM42MJJoX-4" value="Antwort empfangen" style="rounded=0;whiteSpace=wrap;html=1;" vertex="1" parent="WIyWlLk6GJQsqaUBKTNV-1">
          <mxGeometry x="200" y="484" width="120" height="30" as="geometry" />
        </mxCell>
        <mxCell id="Bh1EDCbn83jrM42MJJoX-19" style="edgeStyle=orthogonalEdgeStyle;rounded=0;orthogonalLoop=1;jettySize=auto;html=1;exitX=0.5;exitY=1;exitDx=0;exitDy=0;entryX=0.5;entryY=0;entryDx=0;entryDy=0;" edge="1" parent="WIyWlLk6GJQsqaUBKTNV-1" source="Bh1EDCbn83jrM42MJJoX-5" target="Bh1EDCbn83jrM42MJJoX-6">
          <mxGeometry relative="1" as="geometry" />
        </mxCell>
        <mxCell id="Bh1EDCbn83jrM42MJJoX-5" value="Cluster und Zusammenfassung anzeigen" style="rounded=0;whiteSpace=wrap;html=1;" vertex="1" parent="WIyWlLk6GJQsqaUBKTNV-1">
          <mxGeometry x="180" y="554" width="160" height="48" as="geometry" />
        </mxCell>
        <mxCell id="Bh1EDCbn83jrM42MJJoX-20" style="edgeStyle=orthogonalEdgeStyle;rounded=0;orthogonalLoop=1;jettySize=auto;html=1;exitX=0.5;exitY=1;exitDx=0;exitDy=0;entryX=0.5;entryY=0;entryDx=0;entryDy=0;" edge="1" parent="WIyWlLk6GJQsqaUBKTNV-1" source="Bh1EDCbn83jrM42MJJoX-6" target="Bh1EDCbn83jrM42MJJoX-7">
          <mxGeometry relative="1" as="geometry" />
        </mxCell>
        <mxCell id="Bh1EDCbn83jrM42MJJoX-6" value="Speichern als JSON" style="rounded=0;whiteSpace=wrap;html=1;" vertex="1" parent="WIyWlLk6GJQsqaUBKTNV-1">
          <mxGeometry x="200" y="634" width="120" height="30" as="geometry" />
        </mxCell>
        <mxCell id="Bh1EDCbn83jrM42MJJoX-7" value="Weitere Idee?" style="rhombus;whiteSpace=wrap;html=1;" vertex="1" parent="WIyWlLk6GJQsqaUBKTNV-1">
          <mxGeometry x="177.5" y="704" width="165" height="80" as="geometry" />
        </mxCell>
        <mxCell id="Bh1EDCbn83jrM42MJJoX-8" value="" style="ellipse;whiteSpace=wrap;html=1;" vertex="1" parent="WIyWlLk6GJQsqaUBKTNV-1">
          <mxGeometry x="390" y="719" width="90" height="50" as="geometry" />
        </mxCell>
        <mxCell id="Bh1EDCbn83jrM42MJJoX-10" value="Nein" style="edgeStyle=elbowEdgeStyle;elbow=vertical;endArrow=classic;html=1;curved=0;rounded=0;endSize=8;startSize=8;exitX=0;exitY=0.5;exitDx=0;exitDy=0;entryX=0;entryY=0.5;entryDx=0;entryDy=0;" edge="1" parent="WIyWlLk6GJQsqaUBKTNV-1" source="Bh1EDCbn83jrM42MJJoX-7" target="Bh1EDCbn83jrM42MJJoX-21">
          <mxGeometry width="50" height="50" relative="1" as="geometry">
            <mxPoint x="370" y="600" as="sourcePoint" />
            <mxPoint x="130" y="290" as="targetPoint" />
            <Array as="points">
              <mxPoint x="120" y="480" />
            </Array>
          </mxGeometry>
        </mxCell>
        <mxCell id="Bh1EDCbn83jrM42MJJoX-11" value="Ja" style="endArrow=classic;html=1;rounded=0;exitX=1;exitY=0.5;exitDx=0;exitDy=0;entryX=0;entryY=0.5;entryDx=0;entryDy=0;" edge="1" parent="WIyWlLk6GJQsqaUBKTNV-1" source="Bh1EDCbn83jrM42MJJoX-7" target="Bh1EDCbn83jrM42MJJoX-8">
          <mxGeometry width="50" height="50" relative="1" as="geometry">
            <mxPoint x="440" y="674" as="sourcePoint" />
            <mxPoint x="490" y="624" as="targetPoint" />
          </mxGeometry>
        </mxCell>
        <mxCell id="Bh1EDCbn83jrM42MJJoX-15" value="" style="edgeStyle=elbowEdgeStyle;elbow=vertical;endArrow=classic;html=1;curved=0;rounded=0;endSize=8;startSize=8;exitX=0.55;exitY=0.95;exitDx=0;exitDy=0;exitPerimeter=0;entryX=1;entryY=0.5;entryDx=0;entryDy=0;" edge="1" parent="WIyWlLk6GJQsqaUBKTNV-1" target="Bh1EDCbn83jrM42MJJoX-4">
          <mxGeometry width="50" height="50" relative="1" as="geometry">
            <mxPoint x="426" y="470" as="sourcePoint" />
            <mxPoint x="420" y="414" as="targetPoint" />
            <Array as="points">
              <mxPoint x="390" y="499" />
            </Array>
          </mxGeometry>
        </mxCell>
        <mxCell id="Bh1EDCbn83jrM42MJJoX-16" value="" style="endArrow=classic;html=1;rounded=0;exitX=0.5;exitY=1;exitDx=0;exitDy=0;entryX=0.5;entryY=0;entryDx=0;entryDy=0;" edge="1" parent="WIyWlLk6GJQsqaUBKTNV-1" source="Bh1EDCbn83jrM42MJJoX-4" target="Bh1EDCbn83jrM42MJJoX-5">
          <mxGeometry width="50" height="50" relative="1" as="geometry">
            <mxPoint x="370" y="464" as="sourcePoint" />
            <mxPoint x="420" y="414" as="targetPoint" />
          </mxGeometry>
        </mxCell>
        <mxCell id="Bh1EDCbn83jrM42MJJoX-25" style="edgeStyle=orthogonalEdgeStyle;rounded=0;orthogonalLoop=1;jettySize=auto;html=1;exitX=0.5;exitY=1;exitDx=0;exitDy=0;entryX=0.5;entryY=0;entryDx=0;entryDy=0;" edge="1" parent="WIyWlLk6GJQsqaUBKTNV-1" source="Bh1EDCbn83jrM42MJJoX-21" target="Bh1EDCbn83jrM42MJJoX-2">
          <mxGeometry relative="1" as="geometry" />
        </mxCell>
        <mxCell id="Bh1EDCbn83jrM42MJJoX-21" value="Input User" style="shape=parallelogram;perimeter=parallelogramPerimeter;whiteSpace=wrap;html=1;fixedSize=1;" vertex="1" parent="WIyWlLk6GJQsqaUBKTNV-1">
          <mxGeometry x="200" y="210" width="120" height="40" as="geometry" />
        </mxCell>
        <mxCell id="Bh1EDCbn83jrM42MJJoX-26" value="Input zusammenfassen &amp;amp; clustern" style="rounded=0;whiteSpace=wrap;html=1;dashed=1;dashPattern=8 8;" vertex="1" parent="WIyWlLk6GJQsqaUBKTNV-1">
          <mxGeometry x="360" y="430" width="120" height="60" as="geometry" />
        </mxCell>
        <mxCell id="Bh1EDCbn83jrM42MJJoX-28" style="edgeStyle=orthogonalEdgeStyle;rounded=0;orthogonalLoop=1;jettySize=auto;html=1;exitX=0.5;exitY=1;exitDx=0;exitDy=0;entryX=0.4;entryY=0.1;entryDx=0;entryDy=0;entryPerimeter=0;" edge="1" parent="WIyWlLk6GJQsqaUBKTNV-1" source="Bh1EDCbn83jrM42MJJoX-2" target="Bh1EDCbn83jrM42MJJoX-3">
          <mxGeometry relative="1" as="geometry" />
        </mxCell>
        <mxCell id="Bh1EDCbn83jrM42MJJoX-29" value="Flowchart aerisnotes" style="text;html=1;align=center;verticalAlign=middle;whiteSpace=wrap;rounded=0;fontSize=27;" vertex="1" parent="WIyWlLk6GJQsqaUBKTNV-1">
          <mxGeometry x="330" y="40" width="210" height="30" as="geometry" />
        </mxCell>
      </root>
    </mxGraphModel>
  </diagram>
</mxfile>
